<svg width="1196" height="400" viewBox="0 0 1196 400" fill="none" xmlns="http://www.w3.org/2000/svg">
<g clip-path="url(#clip0_274_129)">
<path d="M1100.76 0.0013H95.2958C91.6307 0.0013 88.0097 0.0013 84.3543 0.0213C81.2945 0.0413 78.259 0.0994 75.1697 0.1483C68.4585 0.227318 61.763 0.818063 55.1415 1.9154C48.5292 3.03663 42.1242 5.15046 36.1428 8.1854C30.1688 11.246 24.7102 15.223 19.965 19.972C15.1949 24.7077 11.2186 30.1815 8.18911 36.1829C5.15124 42.1724 3.04477 48.5907 1.94246 55.2161C0.829665 61.8332 0.23086 68.5265 0.151419 75.2361C0.0586686 78.3021 0.0488738 81.3783 0 84.4447V315.587C0.0488738 318.692 0.0586686 321.7 0.151419 324.806C0.230885 331.516 0.829689 338.209 1.94246 344.825C3.04173 351.455 5.14832 357.877 8.18911 363.868C11.2172 369.85 15.1941 375.302 19.965 380.011C24.6922 384.781 30.1544 388.761 36.1428 391.798C42.1241 394.841 48.5285 396.968 55.1415 398.106C61.7641 399.195 68.4589 399.786 75.1697 399.874C78.259 399.942 81.2945 399.981 84.3543 399.981C88.0096 400.001 91.6309 400.001 95.2958 400.001H1100.76C1104.35 400.001 1108 400.001 1111.59 399.981C1114.64 399.981 1117.76 399.942 1120.81 399.874C1127.5 399.791 1134.19 399.2 1140.8 398.106C1147.43 396.96 1153.86 394.834 1159.87 391.798C1165.85 388.759 1171.31 384.78 1176.03 380.011C1180.79 375.284 1184.77 369.836 1187.84 363.868C1190.86 357.872 1192.94 351.451 1194.03 344.825C1195.14 338.208 1195.76 331.516 1195.88 324.806C1195.92 321.7 1195.92 318.692 1195.92 315.587C1196 311.954 1196 308.341 1196 304.649V95.3626C1196 91.7005 1196 88.0677 1195.92 84.4447C1195.92 81.3783 1195.92 78.3021 1195.88 75.2357C1195.76 68.5255 1195.14 61.8337 1194.03 55.2157C1192.94 48.5941 1190.86 42.1763 1187.84 36.1825C1181.67 24.1533 1171.89 14.3616 1159.87 8.1845C1153.86 5.15697 1147.43 3.0437 1140.8 1.9145C1134.19 0.812328 1127.5 0.221378 1120.81 0.1469C1117.76 0.0981 1114.64 0.0395 1111.59 0.02C1108 0 1104.35 0.0013 1100.76 0.0013Z" fill="#A6A6A6"/>
<path d="M84.403 391.25C81.3578 391.25 78.3862 391.211 75.3649 391.143C69.1061 391.061 62.8619 390.516 56.6835 389.512C50.9225 388.519 45.3417 386.673 40.125 384.033C34.9562 381.415 30.2418 377.983 26.1625 373.867C22.0241 369.8 18.5787 365.082 15.9629 359.902C13.3182 354.688 11.4879 349.099 10.5358 343.33C9.50757 337.131 8.95126 330.863 8.87166 324.58C8.8083 322.471 8.72534 315.449 8.72534 315.449V84.4434C8.72534 84.4434 8.81369 77.5293 8.87216 75.498C8.94838 69.2248 9.50145 62.9665 10.5266 56.7773C11.4805 50.9925 13.3122 45.3875 15.9583 40.1563C18.5645 34.9794 21.9908 30.2586 26.1042 26.1768C30.2131 22.0562 34.9425 18.606 40.1201 15.9521C45.3248 13.3209 50.8951 11.4873 56.6445 10.5127C62.8431 9.49836 69.109 8.94996 75.3895 8.8721L84.4079 8.75H1111.54L1120.67 8.877C1126.89 8.95099 1133.1 9.4945 1139.24 10.5029C1145.05 11.4898 1150.68 13.3362 1155.94 15.9814C1166.32 21.3299 1174.76 29.7916 1180.08 40.1807C1182.68 45.3758 1184.49 50.9351 1185.43 56.6699C1186.47 62.9099 1187.05 69.2174 1187.17 75.542C1187.2 78.374 1187.2 81.416 1187.2 84.4434C1187.27 88.1934 1187.27 91.7627 1187.27 95.3613V304.648C1187.27 308.281 1187.27 311.826 1187.2 315.4C1187.2 318.652 1187.2 321.631 1187.16 324.697C1187.04 330.909 1186.47 337.104 1185.45 343.232C1184.52 349.043 1182.7 354.675 1180.05 359.932C1177.42 365.056 1173.99 369.733 1169.9 373.789C1165.82 377.927 1161.1 381.379 1155.91 384.014C1150.66 386.674 1145.04 388.527 1139.24 389.512C1133.07 390.522 1126.82 391.067 1120.56 391.143C1117.63 391.211 1114.57 391.25 1111.59 391.25L1100.76 391.27L84.403 391.25Z" fill="black"/>
<path d="M247.556 203.007C247.664 194.66 249.88 186.476 253.998 179.217C258.116 171.957 264.002 165.858 271.109 161.486C266.594 155.035 260.638 149.725 253.713 145.98C246.789 142.234 239.087 140.156 231.219 139.909C214.436 138.147 198.165 149.958 189.612 149.958C180.894 149.958 167.726 140.084 153.547 140.376C144.375 140.673 135.436 143.341 127.602 148.122C119.767 152.903 113.304 159.632 108.841 167.655C89.5117 201.139 103.93 250.35 122.446 277.416C131.71 290.669 142.537 305.474 156.704 304.949C170.567 304.374 175.745 296.104 192.479 296.104C209.058 296.104 213.915 304.949 228.37 304.615C243.245 304.373 252.618 291.303 261.557 277.924C268.213 268.48 273.335 258.043 276.733 246.999C268.091 243.341 260.715 237.219 255.527 229.397C250.338 221.574 247.566 212.396 247.556 203.007Z" fill="white"/>
<path d="M220.255 122.109C228.366 112.367 232.361 99.845 231.394 87.2027C219.002 88.5049 207.556 94.4305 199.335 103.799C195.316 108.375 192.238 113.7 190.276 119.468C188.315 125.235 187.509 131.333 187.904 137.413C194.102 137.477 200.234 136.132 205.838 133.482C211.441 130.831 216.371 126.942 220.255 122.109Z" fill="white"/>
<path d="M422.796 271.397H375.488L364.126 304.961H344.088L388.898 180.781H409.717L454.527 304.961H434.147L422.796 271.397ZM380.387 255.908H417.887L399.401 201.436H398.884L380.387 255.908Z" fill="white"/>
<path d="M551.302 259.697C551.302 287.832 536.251 305.908 513.539 305.908C507.785 306.209 502.063 304.883 497.028 302.082C491.993 299.28 487.848 295.117 485.068 290.068H484.638V334.912H466.064V214.424H484.043V229.482H484.384C487.292 224.458 491.507 220.316 496.581 217.497C501.654 214.679 507.397 213.289 513.197 213.476C536.163 213.477 551.302 231.641 551.302 259.697ZM532.21 259.697C532.21 241.367 522.743 229.316 508.297 229.316C494.106 229.316 484.56 241.621 484.56 259.697C484.56 277.939 494.106 290.156 508.297 290.156C522.743 290.156 532.21 278.193 532.21 259.697Z" fill="white"/>
<path d="M650.897 259.697C650.897 287.832 635.846 305.908 613.134 305.908C607.38 306.209 601.658 304.883 596.623 302.082C591.588 299.281 587.443 295.117 584.663 290.068H584.233V334.912H565.659V214.424H583.637V229.482H583.979C586.887 224.458 591.102 220.316 596.176 217.497C601.249 214.679 606.992 213.289 612.792 213.477C635.758 213.477 650.897 231.641 650.897 259.697ZM631.805 259.697C631.805 241.367 622.338 229.316 607.892 229.316C593.701 229.316 584.155 241.621 584.155 259.697C584.155 277.939 593.701 290.156 607.892 290.156C622.338 290.156 631.805 278.193 631.805 259.697Z" fill="white"/>
<path d="M716.721 270.361C718.097 282.676 730.054 290.761 746.392 290.761C762.048 290.761 773.312 282.675 773.312 271.572C773.312 261.933 766.518 256.162 750.433 252.207L734.348 248.33C711.558 242.822 700.977 232.158 700.977 214.853C700.977 193.427 719.639 178.71 746.139 178.71C772.365 178.71 790.343 193.427 790.949 214.853H772.199C771.076 202.46 760.838 194.98 745.875 194.98C730.912 194.98 720.674 202.548 720.674 213.564C720.674 222.343 727.213 227.509 743.21 231.464L756.885 234.823C782.349 240.849 792.93 251.083 792.93 269.247C792.93 292.48 774.434 307.03 745.016 307.03C717.492 307.03 698.908 292.821 697.707 270.36L716.721 270.361Z" fill="white"/>
<path d="M833.016 192.998V214.424H850.223V229.141H833.016V279.053C833.016 286.807 836.461 290.42 844.026 290.42C846.068 290.384 848.108 290.241 850.136 289.99V304.619C846.735 305.255 843.278 305.543 839.819 305.478C821.499 305.478 814.354 298.593 814.354 281.035V229.141H801.197V214.424H814.354V192.998H833.016Z" fill="white"/>
<path d="M860.189 259.697C860.189 231.211 876.957 213.311 903.106 213.311C929.342 213.311 946.032 231.211 946.032 259.697C946.032 288.262 929.429 306.084 903.106 306.084C876.791 306.084 860.189 288.262 860.189 259.697ZM927.106 259.697C927.106 240.156 918.156 228.623 903.106 228.623C888.055 228.623 879.115 240.244 879.115 259.697C879.115 279.316 888.055 290.762 903.106 290.762C918.156 290.762 927.106 279.316 927.106 259.697Z" fill="white"/>
<path d="M961.346 214.424H979.061V229.834H979.49C980.689 225.021 983.507 220.768 987.471 217.789C991.435 214.81 996.302 213.287 1001.26 213.476C1003.4 213.469 1005.53 213.701 1007.62 214.17V231.553C1004.92 230.726 1002.1 230.347 999.274 230.43C996.576 230.32 993.886 230.796 991.389 231.825C988.892 232.854 986.647 234.411 984.808 236.39C982.969 238.369 981.58 240.723 980.736 243.289C979.893 245.856 979.614 248.575 979.919 251.26V304.961H961.345L961.346 214.424Z" fill="white"/>
<path d="M1093.26 278.369C1090.76 294.805 1074.76 306.084 1054.29 306.084C1027.97 306.084 1011.63 288.437 1011.63 260.127C1011.63 231.728 1028.06 213.31 1053.51 213.31C1078.55 213.31 1094.29 230.517 1094.29 257.969V264.336H1030.38V265.459C1030.09 268.791 1030.5 272.148 1031.6 275.306C1032.71 278.464 1034.47 281.352 1036.77 283.778C1039.07 286.203 1041.86 288.111 1044.96 289.374C1048.05 290.637 1051.38 291.226 1054.72 291.103C1059.11 291.515 1063.52 290.498 1067.28 288.203C1071.05 285.909 1073.97 282.46 1075.62 278.369L1093.26 278.369ZM1030.47 251.348H1075.71C1075.87 248.352 1075.42 245.354 1074.37 242.541C1073.33 239.729 1071.71 237.164 1069.63 235.006C1067.54 232.849 1065.04 231.145 1062.26 230.003C1059.49 228.861 1056.51 228.305 1053.51 228.369C1050.49 228.351 1047.49 228.932 1044.69 230.08C1041.89 231.227 1039.35 232.918 1037.21 235.054C1035.06 237.191 1033.36 239.73 1032.21 242.527C1031.05 245.323 1030.46 248.321 1030.47 251.348Z" fill="white"/>
<path d="M378.059 87.31C381.954 87.0304 385.861 87.619 389.5 89.0334C393.139 90.4477 396.419 92.6525 399.104 95.4887C401.788 98.325 403.81 101.722 405.024 105.435C406.237 109.147 406.612 113.083 406.121 116.958C406.121 136.021 395.823 146.978 378.059 146.978H356.518V87.31H378.059ZM365.781 138.54H377.025C379.807 138.706 382.592 138.25 385.176 137.204C387.76 136.158 390.078 134.548 391.962 132.493C393.846 130.437 395.248 127.987 396.066 125.321C396.885 122.654 397.098 119.839 396.692 117.08C397.069 114.332 396.834 111.534 396.003 108.887C395.172 106.241 393.766 103.811 391.887 101.771C390.007 99.7321 387.7 98.134 385.131 97.0916C382.561 96.0492 379.793 95.5884 377.025 95.7421H365.781V138.54Z" fill="white"/>
<path d="M416.584 124.443C416.301 121.484 416.639 118.499 417.577 115.678C418.515 112.857 420.032 110.264 422.03 108.064C424.028 105.864 426.464 104.106 429.181 102.904C431.898 101.701 434.837 101.08 437.808 101.08C440.779 101.08 443.717 101.701 446.434 102.904C449.151 104.106 451.587 105.864 453.585 108.064C455.584 110.264 457.101 112.857 458.038 115.678C458.976 118.499 459.315 121.484 459.032 124.443C459.32 127.406 458.986 130.395 458.05 133.221C457.115 136.046 455.599 138.644 453.6 140.848C451.601 143.052 449.164 144.814 446.444 146.019C443.724 147.224 440.782 147.847 437.808 147.847C434.833 147.847 431.891 147.224 429.172 146.019C426.452 144.814 424.014 143.052 422.015 140.848C420.016 138.644 418.501 136.046 417.565 133.221C416.63 130.395 416.295 127.406 416.584 124.443ZM449.896 124.443C449.896 114.683 445.513 108.975 437.822 108.975C430.102 108.975 425.759 114.683 425.759 124.443C425.759 134.282 430.102 139.946 437.822 139.946C445.514 139.946 449.896 134.243 449.896 124.443Z" fill="white"/>
<path d="M515.457 146.977H506.243L496.941 113.813H496.238L486.976 146.977H477.85L465.444 101.948H474.453L482.515 136.308H483.179L492.432 101.948H500.953L510.206 136.308H510.908L518.931 101.948H527.813L515.457 146.977Z" fill="white"/>
<path d="M538.247 101.948H546.797V109.101H547.461C548.587 106.532 550.486 104.379 552.893 102.941C555.301 101.502 558.097 100.852 560.891 101.079C563.081 100.914 565.28 101.245 567.325 102.046C569.37 102.847 571.208 104.098 572.704 105.706C574.2 107.314 575.315 109.239 575.967 111.337C576.619 113.435 576.79 115.653 576.469 117.827V146.977H567.587V120.059C567.587 112.822 564.444 109.224 557.875 109.224C556.388 109.154 554.904 109.407 553.524 109.966C552.145 110.524 550.902 111.374 549.881 112.458C548.86 113.542 548.086 114.834 547.611 116.245C547.136 117.656 546.972 119.154 547.129 120.635V146.977H538.247L538.247 101.948Z" fill="white"/>
<path d="M590.621 84.37H599.503V146.977H590.621V84.37Z" fill="white"/>
<path d="M611.85 124.443C611.567 121.484 611.906 118.498 612.844 115.677C613.782 112.857 615.299 110.263 617.298 108.063C619.296 105.863 621.732 104.106 624.45 102.903C627.167 101.7 630.105 101.079 633.077 101.079C636.048 101.079 638.986 101.7 641.704 102.903C644.421 104.106 646.857 105.863 648.855 108.063C650.854 110.263 652.371 112.857 653.309 115.677C654.247 118.498 654.586 121.484 654.303 124.443C654.591 127.406 654.256 130.396 653.321 133.221C652.385 136.046 650.869 138.644 648.87 140.848C646.871 143.052 644.433 144.814 641.713 146.019C638.993 147.224 636.051 147.847 633.077 147.847C630.102 147.847 627.16 147.224 624.44 146.019C621.72 144.814 619.282 143.052 617.283 140.848C615.284 138.644 613.768 136.046 612.833 133.221C611.897 130.396 611.562 127.406 611.85 124.443ZM645.162 124.443C645.162 114.683 640.78 108.975 633.089 108.975C625.368 108.975 621.025 114.683 621.025 124.444C621.025 134.282 625.369 139.946 633.089 139.946C640.78 139.946 645.162 134.243 645.162 124.443Z" fill="white"/>
<path d="M663.654 134.243C663.654 126.138 669.686 121.465 680.393 120.801L692.583 120.098V116.211C692.583 111.455 689.441 108.77 683.37 108.77C678.411 108.77 674.976 110.591 673.99 113.774H665.391C666.299 106.04 673.57 101.079 683.78 101.079C695.063 101.079 701.426 106.699 701.426 116.211V146.978H692.876V140.649H692.173C690.747 142.919 688.744 144.77 686.369 146.012C683.994 147.254 681.332 147.843 678.655 147.719C676.766 147.916 674.856 147.714 673.05 147.127C671.243 146.54 669.579 145.581 668.166 144.311C666.753 143.042 665.621 141.49 664.844 139.756C664.066 138.022 663.661 136.144 663.654 134.243ZM692.583 130.395V126.631L681.593 127.334C675.395 127.749 672.584 129.858 672.584 133.828C672.584 137.881 676.098 140.239 680.93 140.239C682.345 140.383 683.776 140.24 685.135 139.819C686.494 139.398 687.755 138.708 688.842 137.789C689.93 136.871 690.821 135.743 691.464 134.473C692.106 133.202 692.487 131.816 692.583 130.395Z" fill="white"/>
<path d="M713.1 124.443C713.1 110.215 720.41 101.201 731.781 101.201C734.594 101.072 737.385 101.746 739.829 103.145C742.273 104.543 744.268 106.61 745.582 109.101H746.246V84.37H755.128V146.977H746.617V139.863H745.914C744.499 142.338 742.434 144.378 739.943 145.763C737.451 147.148 734.629 147.825 731.781 147.719C720.332 147.72 713.1 138.706 713.1 124.443ZM722.275 124.443C722.275 133.994 726.774 139.741 734.3 139.741C741.786 139.741 746.412 133.911 746.412 124.482C746.412 115.098 741.737 109.185 734.3 109.185C726.823 109.185 722.275 114.971 722.275 124.443Z" fill="white"/>
<path d="M791.876 124.443C791.593 121.484 791.931 118.499 792.869 115.678C793.807 112.857 795.324 110.264 797.322 108.064C799.32 105.864 801.756 104.106 804.473 102.904C807.19 101.701 810.129 101.08 813.1 101.08C816.071 101.08 819.009 101.701 821.726 102.904C824.443 104.106 826.879 105.864 828.877 108.064C830.876 110.264 832.393 112.857 833.33 115.678C834.268 118.499 834.607 121.484 834.324 124.443C834.612 127.406 834.278 130.395 833.342 133.221C832.407 136.046 830.891 138.644 828.892 140.848C826.893 143.052 824.456 144.814 821.736 146.019C819.016 147.224 816.074 147.847 813.1 147.847C810.125 147.847 807.183 147.224 804.464 146.019C801.744 144.814 799.306 143.052 797.307 140.848C795.308 138.644 793.793 136.046 792.857 133.221C791.922 130.395 791.587 127.406 791.876 124.443ZM825.188 124.443C825.188 114.683 820.805 108.975 813.114 108.975C805.394 108.975 801.051 114.683 801.051 124.443C801.051 134.282 805.394 139.946 813.114 139.946C820.806 139.946 825.188 134.243 825.188 124.443Z" fill="white"/>
<path d="M846.241 101.948H854.791V109.101H855.455C856.581 106.532 858.48 104.379 860.887 102.941C863.295 101.502 866.091 100.852 868.885 101.079C871.075 100.914 873.274 101.245 875.319 102.046C877.364 102.847 879.202 104.098 880.698 105.706C882.194 107.314 883.31 109.239 883.961 111.337C884.613 113.435 884.784 115.653 884.463 117.827V146.977H875.581V120.059C875.581 112.822 872.438 109.224 865.869 109.224C864.383 109.154 862.898 109.407 861.519 109.966C860.139 110.524 858.896 111.374 857.875 112.458C856.855 113.542 856.08 114.834 855.605 116.245C855.13 117.656 854.966 119.154 855.123 120.635V146.977H846.241V101.948Z" fill="white"/>
<path d="M934.651 90.7373V102.153H944.402V109.639H934.651V132.793C934.651 137.51 936.593 139.575 941.015 139.575C942.147 139.572 943.278 139.503 944.402 139.37V146.772C942.807 147.058 941.191 147.21 939.57 147.226C929.693 147.226 925.759 143.75 925.759 135.068V109.638H918.615V102.153H925.759V90.7373H934.651Z" fill="white"/>
<path d="M956.534 84.37H965.338V109.184H966.04C967.221 106.591 969.172 104.425 971.628 102.982C974.084 101.538 976.924 100.888 979.763 101.118C981.941 100.999 984.119 101.363 986.141 102.184C988.163 103.004 989.978 104.261 991.459 105.864C992.939 107.468 994.048 109.378 994.705 111.46C995.363 113.541 995.553 115.742 995.263 117.905V146.977H986.372V120.097C986.372 112.905 983.024 109.262 976.748 109.262C975.221 109.137 973.686 109.347 972.249 109.878C970.812 110.408 969.508 111.247 968.429 112.334C967.349 113.421 966.521 114.732 966 116.173C965.48 117.614 965.28 119.152 965.416 120.678V146.977H956.534L956.534 84.37Z" fill="white"/>
<path d="M1047.05 134.819C1045.84 138.935 1043.23 142.495 1039.67 144.876C1036.1 147.258 1031.81 148.309 1027.55 147.847C1024.59 147.925 1021.64 147.357 1018.92 146.181C1016.19 145.006 1013.76 143.252 1011.78 141.041C1009.8 138.829 1008.33 136.214 1007.46 133.375C1006.59 130.537 1006.36 127.544 1006.76 124.605C1006.37 121.656 1006.61 118.656 1007.47 115.81C1008.34 112.963 1009.8 110.335 1011.77 108.104C1013.74 105.874 1016.16 104.092 1018.88 102.88C1021.59 101.668 1024.54 101.054 1027.51 101.079C1040.03 101.079 1047.59 109.639 1047.59 123.779V126.88H1015.81V127.378C1015.67 129.03 1015.88 130.694 1016.42 132.261C1016.96 133.829 1017.82 135.266 1018.95 136.48C1020.08 137.695 1021.45 138.66 1022.97 139.314C1024.49 139.968 1026.14 140.296 1027.79 140.278C1029.92 140.533 1032.07 140.15 1033.98 139.178C1035.88 138.206 1037.46 136.689 1038.5 134.819L1047.05 134.819ZM1015.81 120.308H1038.54C1038.65 118.796 1038.45 117.278 1037.94 115.851C1037.43 114.424 1036.63 113.119 1035.58 112.021C1034.54 110.922 1033.28 110.054 1031.88 109.472C1030.48 108.89 1028.98 108.608 1027.46 108.643C1025.93 108.623 1024.4 108.912 1022.98 109.491C1021.56 110.071 1020.26 110.929 1019.18 112.017C1018.09 113.104 1017.23 114.397 1016.65 115.821C1016.08 117.245 1015.79 118.771 1015.81 120.308Z" fill="white"/>
</g>
<defs>
<clipPath id="clip0_274_129">
<rect width="1196" height="400" fill="white"/>
</clipPath>
</defs>
</svg>
